<?xml version="1.0" standalone="no"?>
<!DOCTYPE svg PUBLIC "-//W3C//DTD SVG 20010904//EN"
 "http://www.w3.org/TR/2001/REC-SVG-20010904/DTD/svg10.dtd">
<svg version="1.0" xmlns="http://www.w3.org/2000/svg"
 width="1568.000000pt" height="1568.000000pt" viewBox="0 0 1568.000000 1568.000000"
 preserveAspectRatio="xMidYMid meet">
<metadata>
Created by potrace 1.11, written by Peter Selinger 2001-2013
</metadata>
<g transform="translate(0.000000,1568.000000) scale(0.100000,-0.100000)"
fill="#000000" stroke="none">
<path d="M5160 12939 c-104 -64 -298 -240 -760 -692 -129 -127 -289 -277 -355
-335 -466 -406 -575 -576 -575 -895 0 -87 22 -264 46 -377 3 -14 9 -216 13
-450 7 -335 12 -441 25 -503 32 -147 83 -230 170 -274 94 -49 261 -42 447 17
98 32 127 68 156 203 13 59 17 190 23 722 6 530 10 663 23 722 20 92 50 151
85 164 132 51 225 133 383 338 168 218 183 236 226 274 64 54 91 51 139 -15
21 -29 41 -55 44 -58 3 -3 39 -45 80 -95 65 -78 257 -282 400 -425 42 -42 153
-146 248 -232 28 -26 43 -50 48 -74 11 -61 -2 -206 -45 -474 -62 -396 -65
-424 -65 -600 1 -287 49 -362 243 -377 96 -7 441 11 811 42 534 45 673 50 865
31 622 -62 1213 -47 2380 60 528 48 721 42 807 -26 68 -53 86 -372 48 -825
-58 -698 -38 -1002 84 -1245 97 -193 225 -281 408 -281 105 0 206 31 329 100
98 54 119 84 143 202 43 211 45 684 6 1384 -11 198 -23 468 -26 600 -6 215 -4
253 15 365 28 169 35 290 22 381 -28 200 -119 306 -306 355 -107 29 -390 24
-910 -14 -676 -50 -760 -53 -1825 -59 -986 -5 -1368 1 -1810 28 -271 17 -263
6 -270 344 -5 214 -9 254 -34 370 -19 89 -34 136 -48 150 l-20 20 12 -25 13
-25 -23 20 c-42 36 -123 125 -141 153 -9 15 -205 210 -435 434 -363 353 -460
441 -731 663 -171 140 -315 255 -320 255 -4 0 -24 -10 -43 -21z"/>
<path d="M3965 8984 c-33 -2 -143 -11 -245 -19 -212 -18 -224 -23 -254 -101
-37 -100 -7 -357 59 -502 29 -64 60 -94 130 -126 134 -62 301 -75 779 -63
l321 8 395 -36 c217 -20 429 -39 470 -42 116 -8 437 -77 620 -133 91 -28 188
-57 215 -65 58 -16 370 -121 400 -134 11 -5 101 -34 200 -65 99 -32 189 -61
200 -66 11 -4 63 -25 115 -46 52 -20 122 -49 155 -64 33 -14 76 -32 95 -40 19
-7 39 -17 45 -22 5 -4 14 -8 21 -8 6 0 77 -31 158 -70 80 -38 148 -70 151 -70
2 0 46 -20 97 -44 176 -82 203 -94 293 -131 49 -21 112 -47 140 -60 27 -12 91
-36 140 -54 50 -18 106 -39 125 -46 146 -53 422 -117 625 -145 113 -16 188
-35 358 -92 150 -50 187 -66 382 -164 181 -91 328 -171 430 -234 39 -24 90
-54 115 -68 25 -14 47 -28 50 -32 3 -3 37 -24 75 -45 39 -21 113 -64 165 -96
85 -51 322 -173 440 -227 96 -44 267 -102 301 -102 131 0 275 166 315 363 20
98 10 168 -40 267 -128 254 -437 514 -836 703 -92 43 -146 67 -154 67 -3 0
-26 9 -51 20 -25 11 -65 29 -90 40 -25 11 -47 20 -49 20 -5 0 -140 63 -306
142 -195 94 -596 277 -690 315 -163 67 -293 110 -550 183 -41 12 -88 27 -105
35 -117 53 -449 178 -540 203 -181 51 -2533 669 -2625 690 -270 62 -387 81
-810 128 -216 24 -274 26 -705 29 -258 1 -497 1 -530 -1z"/>
<path d="M3557 7768 c-68 -71 -109 -192 -139 -408 -21 -156 -17 -842 7 -1110
25 -273 23 -433 -10 -745 -35 -330 -44 -658 -21 -773 19 -92 46 -162 82 -209
29 -38 86 -83 111 -88 10 -2 18 -4 18 -5 0 -3 43 -11 85 -16 25 -3 340 22 700
54 l655 60 815 -62 815 -62 1360 93 c748 51 1403 93 1455 93 52 0 151 -7 220
-15 163 -20 160 -19 340 -50 85 -14 171 -28 190 -31 19 -2 42 -6 50 -9 20 -6
323 -53 380 -59 25 -3 79 -10 120 -16 41 -6 174 -13 295 -17 311 -8 451 14
625 99 68 33 83 44 156 117 141 141 187 442 95 630 -56 116 -154 197 -336 276
-60 26 -130 57 -154 67 -24 11 -105 42 -180 70 -75 27 -151 57 -170 65 -18 8
-39 16 -45 18 -6 1 -22 7 -36 12 -14 6 -83 34 -155 62 -164 65 -139 54 -530
246 -181 90 -358 175 -393 189 -77 33 -208 92 -242 110 -19 11 -303 131 -485
206 -11 4 -41 18 -67 30 -27 12 -54 23 -60 24 -7 1 -17 4 -23 8 -5 3 -41 18
-80 33 -38 14 -92 36 -120 47 -27 11 -54 21 -60 23 -9 2 -21 6 -62 22 -10 3
-20 7 -23 8 -3 1 -18 7 -35 14 -78 33 -485 177 -710 251 -917 300 -1861 524
-2760 654 -180 26 -318 43 -400 50 -27 3 -84 9 -125 15 -189 26 -819 71 -999
71 l-114 0 -40 -42z m1568 -1008 l600 -80 965 -265 c531 -146 1017 -281 1080
-301 150 -47 406 -151 640 -261 174 -82 401 -170 638 -249 247 -81 365 -130
364 -149 -1 -6 -25 -13 -54 -18 -77 -11 -2408 -158 -2503 -158 -44 0 -399 17
-790 37 -791 40 -806 40 -1139 -12 -319 -49 -417 -34 -462 73 -20 46 -17 159
6 292 18 99 20 158 20 470 -1 329 -9 559 -26 668 l-6 44 33 -6 c19 -3 304 -41
634 -85z"/>
<path d="M3110 3535 c-181 -41 -289 -145 -335 -320 -36 -139 -45 -688 -15
-890 32 -216 126 -338 302 -396 102 -34 282 -34 377 0 131 46 218 126 261 239
45 118 54 216 54 557 0 341 -10 441 -54 557 -44 116 -135 200 -260 239 -86 27
-242 34 -330 14z m236 -180 c32 -9 62 -28 86 -52 86 -90 103 -182 103 -573 0
-308 -8 -392 -47 -497 -39 -106 -139 -161 -272 -151 -129 11 -206 82 -244 228
-19 74 -29 587 -13 728 21 191 79 286 201 323 42 12 134 10 186 -6z"/>
<path d="M5924 3515 c-219 -47 -350 -223 -330 -439 15 -161 84 -241 382 -438
300 -199 363 -282 322 -422 -17 -56 -90 -128 -153 -149 -93 -32 -218 -16 -274
36 -38 35 -63 102 -68 188 l-6 79 -115 0 -115 0 6 -92 c12 -202 100 -322 277
-375 70 -22 271 -24 350 -4 212 53 335 229 317 455 -12 145 -81 225 -349 402
-253 169 -357 283 -358 392 0 117 107 212 239 212 139 0 218 -78 229 -222 l5
-68 108 0 109 0 0 43 c0 167 -74 303 -200 367 -92 47 -253 62 -376 35z"/>
<path d="M4460 2720 l0 -800 375 0 375 0 0 90 0 90 -270 0 -270 0 0 710 0 710
-105 0 -105 0 0 -800z"/>
<path d="M7180 3410 l0 -90 339 -2 340 -3 -365 -600 -364 -600 0 -107 0 -108
475 0 475 0 0 90 0 90 -365 0 c-201 0 -365 2 -365 4 0 3 164 277 365 611 l365
605 0 100 0 100 -450 0 -450 0 0 -90z"/>
<path d="M8560 3420 l0 -80 195 0 195 0 0 -720 0 -720 105 0 105 0 0 720 0
720 190 0 190 0 0 80 0 80 -490 0 -490 0 0 -80z"/>
<path d="M9983 3493 c3 -4 97 -213 211 -465 l206 -456 0 -336 0 -336 105 0
105 0 0 328 1 327 218 470 218 470 -100 3 c-55 1 -104 -1 -108 -5 -4 -4 -76
-173 -160 -376 -83 -202 -154 -365 -156 -363 -2 2 -70 169 -151 372 l-148 369
-123 3 c-67 1 -120 -1 -118 -5z"/>
<path d="M11630 2700 l0 -800 96 0 96 0 -5 698 c-2 383 -8 708 -12 722 -32 99
48 -84 306 -703 l298 -712 145 -3 146 -3 0 801 0 800 -101 0 -100 0 3 -699 c2
-385 0 -694 -4 -687 -6 10 -491 1189 -555 1349 l-15 37 -149 0 -149 0 0 -800z"/>
</g>
</svg>
